# xmcd
#
# Track frame offsets: 
#        150
#        20572
#        36683
#        54497
#        78363
#        107301
#        127184
#        143143
#        166178
#        186448
#        207107
#
# Disc length: 3114 seconds
#
# Revision: 3
# Processed by: cddbd v1.5.2PL0 Copyright (c) Steve Scherf et al.
# Submitted via: ExactAudioCopy v1.0b4
#
DISCID=980c280b
DTITLE=Too Slim And The Taildraggers - Tales Of Sin And Redemption
DYEAR=2003
DGENRE=Blues
TTITLE0=Walk On Water
TTITLE1=Brown Bottle Rock
TTITLE2=Oven Burnin' Woman
TTITLE3=Mississippi Moon
TTITLE4=Wish I Was Fishin'
TTITLE5=Soul Perspective
TTITLE6=Some Kinda' Momma
TTITLE7=Broad Minded
TTITLE8=Missed That Train
TTITLE9=Flatblack Flathead
TTITLE10=Too Cool
EXTD=
EXTT0=
EXTT1=
EXTT2=
EXTT3=
EXTT4=
EXTT5=
EXTT6=
EXTT7=
EXTT8=
EXTT9=
EXTT10=
PLAYORDER=
